<svg xmlns="http://www.w3.org/2000/svg" viewBox="0 0 760 520"><defs><linearGradient id="g" x1="0" y1="0" x2="1" y2="1"><stop stop-color="#8B7CFF"/><stop offset="1" stop-color="#4B37E8"/></linearGradient><filter id="b"><feGaussianBlur stdDeviation="32"/></filter></defs><circle cx="550" cy="180" r="130" fill="#6D5DFC" opacity=".2" filter="url(#b)"/><rect x="80" y="70" width="600" height="380" rx="32" fill="#12151D" stroke="#2A2E3A"/><rect x="112" y="108" width="536" height="56" rx="18" fill="#191D27"/><circle cx="145" cy="136" r="12" fill="url(#g)"/><rect x="172" y="126" width="190" height="20" rx="10" fill="#2B3040"/><g fill="#191D27" stroke="#2A2E3A"><rect x="112" y="190" width="160" height="104" rx="20"/><rect x="294" y="190" width="160" height="104" rx="20"/><rect x="476" y="190" width="172" height="104" rx="20"/><rect x="112" y="316" width="536" height="96" rx="20"/></g><path d="M145 242h94M327 242h94M509 242h106M145 352h260" stroke="#6D5DFC" stroke-width="12" stroke-linecap="round" opacity=".8"/><path d="M145 382h390" stroke="#343949" stroke-width="10" stroke-linecap="round"/></svg>