<svg xmlns="http://www.w3.org/2000/svg" viewBox="0 0 1200 720">
<defs>
  <linearGradient id="bg" x1="0" y1="0" x2="1" y2="1"><stop stop-color="#071326"/><stop offset="1" stop-color="#0B1B3D"/></linearGradient>
  <linearGradient id="blue" x1="0" y1="0" x2="1" y2="1"><stop stop-color="#173A70"/><stop offset=".65" stop-color="#2563EB"/><stop offset="1" stop-color="#3B82FF"/></linearGradient>
  <linearGradient id="mark" x1="0" y1="0" x2="1" y2="1"><stop stop-color="#F8FAFC"/><stop offset=".45" stop-color="#BFDBFE"/><stop offset="1" stop-color="#3B82FF"/></linearGradient>
</defs>
<rect width="1200" height="720" rx="28" fill="url(#bg)"/>
<rect x="22" y="22" width="200" height="676" rx="18" fill="#0A1830" stroke="#334155"/>
<g transform="translate(45 45)">
  <path d="M26 0 48 13 48 39 26 52 4 39 4 13Z" fill="#07152D"/>
  <path d="M26 0 48 13 38 20 26 13 14 20 4 13Z" fill="url(#mark)"/>
  <path d="M48 13 48 39 38 33 38 21Z" fill="#3B82FF"/>
  <path d="M48 39 26 52 26 39 38 33Z" fill="#F8FAFC"/>
  <path d="M26 52 4 39 14 33 26 39Z" fill="#2563EB"/>
  <path d="M4 39 4 13 14 20 14 33Z" fill="#60A5FA"/>
  <text x="64" y="35" font-family="Segoe UI,Arial" font-size="24" font-weight="700" fill="#F8FAFC">Orvexa</text>
</g>
<g font-family="Segoe UI,Arial" font-size="15" fill="#CBD5E1">
  <rect x="34" y="128" width="176" height="44" rx="10" fill="#153E87" stroke="#3B82FF"/><text x="78" y="156" fill="#F8FAFC">Home</text>
  <text x="78" y="209">Catalog</text><text x="78" y="258">Updates</text><text x="78" y="307">Installed</text>
  <text x="78" y="356">This PC</text><text x="78" y="405">Activity</text><text x="78" y="454">Settings</text><text x="78" y="503">About</text>
</g>
<g transform="translate(250 40)">
  <text x="0" y="38" font-family="Segoe UI,Arial" font-size="34" font-weight="700" fill="#F8FAFC">Home</text>
  <text x="0" y="66" font-family="Segoe UI,Arial" font-size="15" fill="#94A3B8">Windows software, under control.</text>
  <rect x="620" y="8" width="300" height="42" rx="10" fill="#101C2F" stroke="#334155"/>
  <circle cx="646" cy="29" r="7" fill="none" stroke="#94A3B8" stroke-width="2"/><path d="M651 34l6 6" stroke="#94A3B8" stroke-width="2"/>
  <rect x="0" y="92" width="580" height="235" rx="16" fill="url(#blue)" stroke="#3B82FF"/>
  <text x="28" y="132" font-family="Segoe UI,Arial" font-size="12" font-weight="700" fill="#7DD3FC">EXPLORE</text>
  <text x="28" y="178" font-family="Segoe UI,Arial" font-size="29" font-weight="700" fill="#F8FAFC">Trusted App Catalog</text>
  <text x="28" y="207" font-family="Segoe UI,Arial" font-size="15" fill="#DBEAFE">Curated applications from trusted Windows sources.</text>
  <rect x="28" y="245" width="150" height="44" rx="10" fill="#3B82FF"/><text x="56" y="273" font-family="Segoe UI,Arial" font-size="14" font-weight="600" fill="white">Open Catalog</text>
  <g fill="#101C2F" stroke="#60A5FA">
    <rect x="392" y="122" width="66" height="66" rx="16"/><rect x="472" y="105" width="66" height="66" rx="16"/>
    <rect x="425" y="198" width="66" height="66" rx="16"/><rect x="500" y="185" width="66" height="66" rx="16"/>
  </g>
  <rect x="598" y="92" width="322" height="235" rx="16" fill="#101C2F" stroke="#334155"/>
  <text x="624" y="130" font-family="Segoe UI,Arial" font-size="19" font-weight="700" fill="#F8FAFC">Available Updates</text>
  <text x="624" y="158" font-family="Segoe UI,Arial" font-size="13" fill="#94A3B8">Security fixes and new app versions.</text>
  <g fill="#0D192A" stroke="#334155"><rect x="624" y="180" width="270" height="38" rx="8"/><rect x="624" y="228" width="270" height="38" rx="8"/><rect x="624" y="276" width="270" height="38" rx="8"/></g>
  <rect x="0" y="345" width="365" height="170" rx="16" fill="#101C2F" stroke="#334155"/>
  <rect x="380" y="345" width="250" height="170" rx="16" fill="#101C2F" stroke="#334155"/>
  <rect x="645" y="345" width="275" height="170" rx="16" fill="#101C2F" stroke="#334155"/>
  <text x="24" y="382" font-family="Segoe UI,Arial" font-size="18" font-weight="700" fill="#F8FAFC">Installed Applications</text>
  <text x="404" y="382" font-family="Segoe UI,Arial" font-size="18" font-weight="700" fill="#F8FAFC">Device Health</text>
  <text x="669" y="382" font-family="Segoe UI,Arial" font-size="18" font-weight="700" fill="#F8FAFC">Quick Actions</text>
  <g fill="#17263D" stroke="#334155"><rect x="669" y="405" width="227" height="34" rx="8"/><rect x="669" y="449" width="227" height="34" rx="8"/></g>
  <rect x="0" y="533" width="920" height="120" rx="16" fill="#101C2F" stroke="#334155"/>
  <text x="24" y="570" font-family="Segoe UI,Arial" font-size="18" font-weight="700" fill="#F8FAFC">Recommended Tools</text>
  <g fill="#0D192A" stroke="#334155"><rect x="24" y="590" width="160" height="42" rx="9"/><rect x="196" y="590" width="160" height="42" rx="9"/><rect x="368" y="590" width="160" height="42" rx="9"/><rect x="540" y="590" width="160" height="42" rx="9"/><rect x="712" y="590" width="160" height="42" rx="9"/></g>
</g>
</svg>